<?xml version="1.0" encoding="utf-8"?>
<!-- Generator: Adobe Illustrator 16.0.0, SVG Export Plug-In . SVG Version: 6.00 Build 0)  -->
<!DOCTYPE svg PUBLIC "-//W3C//DTD SVG 1.1//EN" "http://www.w3.org/Graphics/SVG/1.1/DTD/svg11.dtd">
<svg version="1.1" xmlns="http://www.w3.org/2000/svg" xmlns:xlink="http://www.w3.org/1999/xlink" x="0px" y="0px"
	 width="60" height="60" viewBox="0 0 60 60" enable-background="new 0 0 60 60" xml:space="preserve">
<g>
	<path fill="#58595B" d="M51.491,0H2.66C1.19,0,0,1.192,0,2.662v55.734h13.769V22.161h0.001c0,0,0,0,0-0.002
		c0-3.817,3.083-6.911,6.883-6.911c3.803,0,6.884,3.093,6.884,6.911c0,0.002,0,0.002,0,0.002V40.34c0,3.816,3.083,6.911,6.885,6.911
		h23.973V6.904C58.396,3.092,55.304,0,51.491,0z M52.542,22.526c-0.263,0.872-0.562,1.66-0.888,2.367
		c-0.063,0.133-0.132,0.272-0.197,0.411c-0.061,0.138-0.124,0.282-0.185,0.414c-0.328,0.708-0.735,1.445-1.229,2.209
		c-0.489,0.768-1.065,1.417-1.722,1.951c-0.658,0.533-1.399,0.886-2.222,1.06c-0.78,0.164-1.641,0.033-2.583-0.374
		c-0.92-0.451-1.578-1.022-1.955-1.725c-0.4-0.741-0.612-1.534-0.632-2.38c-0.019-0.845,0.105-1.705,0.371-2.575
		c0.262-0.872,0.561-1.661,0.888-2.367c0.061-0.133,0.131-0.274,0.195-0.411c0.064-0.138,0.125-0.281,0.187-0.415
		c0.326-0.707,0.733-1.443,1.226-2.209c0.492-0.769,1.068-1.416,1.724-1.95c0.661-0.535,1.399-0.885,2.222-1.059
		c0.781-0.167,1.643-0.035,2.583,0.373c0.919,0.452,1.578,1.023,1.958,1.724c0.399,0.742,0.611,1.533,0.63,2.38
		C52.929,20.796,52.807,21.655,52.542,22.526z"/>
</g>
</svg>
