<?xml version="1.0" encoding="utf-8"?>
<!DOCTYPE svg PUBLIC "-//W3C//DTD SVG 1.1//EN" "http://www.w3.org/Graphics/SVG/1.1/DTD/svg11.dtd">
<svg version="1.1" id="Layer_1" xmlns="http://www.w3.org/2000/svg" xmlns:xlink="http://www.w3.org/1999/xlink" x="0px" y="0px"
	 width="285" height="50" viewBox="0 0 285 50" enable-background="new 0 0 285 50"
	 xml:space="preserve">
<path fill="#333333" d="M35.965,0.588h14.684v30.867c0.107,1.95,0.141,4.374,0.964,5.883c0.94,1.724,1.989,2.435,2.931,2.896
	c1.116,0.549,3.294,0.952,5.06,0.985c1.577,0.029,3.124-0.341,4.637-1.022c1.512-0.687,2.641-1.711,3.387-3.082
	c0.613-1.12,0.986-2.239,1.117-3.357c0.133-1.122,0.221-2.389,0.264-3.795c0.042-0.748,0-29.375,0-29.375h7.867
	c0,0,0.087,29.56,0,31.05c-0.088,1.495-0.193,2.876-0.499,4.139c-0.306,1.268-0.747,2.449-1.315,3.545
	c-0.57,1.102-1.341,2.19-2.302,3.269c-1.973,2.117-4.396,3.645-7.27,4.574c-2.872,0.933-6.041,1.398-9.506,1.398
	c-7.103,0-12.41-1.5-15.915-4.51c-3.511-3.008-4.102-7.89-4.102-14.651C35.965,24.175,35.965,0.588,35.965,0.588z"/>
<rect x="218.149" y="0.588" fill="#333333" width="14.579" height="47.316"/>
<path fill="#333333" d="M108.081,43.185v4.074c-1.978,0.646-6.231,1.02-8.01,1.02c-3.963,0-6.847-0.931-8.647-2.665
	c-1.803-1.737-2.427-4.275-2.427-7.622V22.096h-6.005V16.6h6.005V7.064c0,0,11.115-6.703,11.115-6.703l1.335,0.625V16.6h6.004v5.496
	h-6.004c0,0,0,15.102,0,17.364C101.447,44.106,105.518,43.923,108.081,43.185z"/>
<path fill="#333333" d="M257.432,0.588l-18.801,47.316h6.204l3.855-9.798h17.136l3.892,9.8l15.568,0.006L266.501,0.588H257.432z
	 M250.893,32.611l6.384-16.011l6.363,16.011H250.893z"/>
<path fill="#333333" d="M17.556,40.431c-1.645,0-2.976-1.262-2.976-2.814V0.588H0v47.316h30.671v-7.474H17.556z"/>
<path fill="#333333" d="M208.283,6.395c-1.12-1.678-2.754-3.154-3.747-3.748c-0.862-0.515-2.479-1.288-4.139-1.597
	c-1.948-0.362-4.521-0.462-6.762-0.462c-1.825,0-21.737,0-21.737,0v47.316h14.579V36.382v-3.771c3.536,0,6.504,0,7.158,0
	c2.24,0,4.813-0.098,6.762-0.46c1.66-0.308,3.276-1.084,4.139-1.598c0.993-0.593,2.627-2.068,3.747-3.748
	c1.119-1.678,2.821-5.994,2.821-10.205C211.104,12.388,209.402,8.073,208.283,6.395z M196.917,22.218
	c-0.362,1.068-0.982,2.294-1.829,3.096c-1.173,1.109-2.594,1.582-3.522,1.699c-0.934,0.12-1.877,0.12-2.904,0.12
	c-0.647,0-2.185,0-2.185,0V16.6V6.085c0,0,1.537,0,2.185,0c1.027,0,1.91-0.016,2.904,0.102c0.929,0.109,2.35,0.59,3.522,1.701
	c0.847,0.8,1.467,2.026,1.829,3.096c0.463,1.377,0.964,2.763,1.046,5.616C197.881,19.454,197.38,20.841,196.917,22.218z"/>
<path fill="#333333" d="M128.241,2.248c-12.867,5.627-18.473,20.055-12.523,32.225c5.949,12.17,21.203,17.473,34.07,11.845
	c12.868-5.629,18.474-20.056,12.522-32.226C156.363,1.923,141.107-3.379,128.241,2.248z M148.366,17.86
	c0.245,1.939,0.362,3.745,0.362,5.419c0,0.319-0.008,0.654-0.01,0.979c0.002,0.328,0.01,0.661,0.01,0.981
	c0,1.674-0.117,3.481-0.362,5.422c-0.236,1.939-0.721,3.728-1.444,5.362c-0.725,1.636-1.741,2.992-3.049,4.074
	c-1.242,1.027-2.866,1.549-4.854,1.604c-1.992-0.055-3.616-0.576-4.852-1.605c-1.309-1.082-2.325-2.438-3.054-4.074
	c-0.719-1.631-1.203-3.421-1.441-5.362c-0.246-1.938-0.365-3.745-0.364-5.42c-0.001-0.319,0.009-0.653,0.01-0.979
	c-0.003-0.327-0.01-0.663-0.009-0.98c-0.001-1.673,0.117-3.483,0.36-5.422c0.239-1.94,0.725-3.728,1.448-5.363
	c0.724-1.635,1.74-2.989,3.05-4.073c1.238-1.028,2.864-1.551,4.852-1.603c1.988,0.053,3.612,0.574,4.854,1.601
	c1.306,1.085,2.322,2.441,3.051,4.075C147.645,14.129,148.127,15.917,148.366,17.86z"/>
</svg>
